<svg xmlns="http://www.w3.org/2000/svg" width="42" height="42"><path fill-rule="evenodd" d="M21 0C9.408 0 0 9.408 0 21s9.408 21 21 21 21-9.408 21-21S32.592 0 21 0zm0 1c11.052 0 20 8.948 20 20s-8.948 20-20 20S1 32.052 1 21 9.948 1 21 1zm4.205 6a.5.5 74.693 00-.13.018l-2.882.789a.5.5 0 00-.025.01l-5.773 1.58a.5.5 74.693 00-.35.613l2.244 8.197-.42.117h.069a.5.5 0 00-.483.631l2.565 9.379c-.053 0-.102-.022-.155-.023a3.884 3.884 0 00-1.299.191c-1.554-5.626-4.093-14.66-5.503-20.123a.5.5 0 00-.512-.375l-3.065.174a.5.5 0 10.057.998l2.66-.15c.708 2.726 1.68 6.285 2.654 9.824l-1.273 2.205a.5.5 0 00-.047.38l1.135 4.15a.5.5 0 00.058.214l1.25 4.572.08.291a4.16 4.16 0 00-.4 1.54c-.136 2.213 1.522 4.092 3.71 4.17 2.186.077 4.072-1.677 4.208-3.892a4.033 4.033 0 00-.027-.699l9.705-2.656.53-.145a.5.5 0 00-.134-.982.5.5 0 00-.132.02l-.528.144-9.674 2.649a3.909 3.909 0 00-.83-1.313l9.03-2.469h-.069a.5.5 0 00.483-.63l-2.903-10.612a.5.5 0 00-.062-.14.5.5 0 00-.422-.227.5.5 0 00-.13.018l-.481.13-2.245-8.197a.5.5 74.693 00-.384-.36.5.5 74.693 00-.1-.009V7zm-.348 1.115l2.112 7.715-7.719 2.111-2.111-7.714 1.931-.528 1.188 4.346a.5.5 0 00.963.018l.67-1.686 1.328 1.023a.5.5 0 00.697.141.5.5 0 00.156-.713l-1.144-4.185 1.93-.528zm-2.892.791l.783 2.87-.77-.594a.5.5 0 00-.328-.104.5.5 0 00-.441.315l-.379.949-.795-2.908 1.93-.528zm6.232 7.625l2.639 9.647-9.36 2.558c-.112-.057-.23-.101-.349-.148l-2.576-9.418.449-.123a.5.5 74.693 00.004 0l.03-.01 2.411-.66 1.424 5.205a.5.5 0 00.951.203.5.5 0 00.012-.023.5.5 0 00.008-.02h.002a.5.5 0 00.004-.013l.71-1.71 1.401 1.131a.5.5 0 00.8-.511.5.5 0 00-.005-.016l-.004-.012a.5.5 0 00-.006-.017l-1.44-5.264 2.41-.66a.5.5 74.693 00.009 0l.476-.13v-.009zm-3.857 1.057l1.04 3.81-.714-.576a.5.5 0 00-.324-.111.5.5 0 00-.453.309l-.412.994-1.067-3.899 1.93-.527zm-9.11 2.615l1.116 4.026-.86.542-.93-3.4.674-1.168zm1.395 5.033l1.016 3.67c-.31.191-.584.43-.834.696l-1.045-3.823.863-.543zm3.18 4.07c1.635.059 2.877 1.451 2.773 3.137-.103 1.687-1.512 2.986-3.146 2.928-1.635-.058-2.88-1.45-2.776-3.137.104-1.686 1.514-2.985 3.149-2.927zm-.09 1.034a2.008 2.008 0 00-2.094 1.902 2.008 2.008 0 001.902 2.094 2.008 2.008 0 002.094-1.902 2.008 2.008 0 00-1.902-2.094zm-.047 1a.992.992 0 01.951 1.047.994.994 0 01-1.049.95.994.994 0 01-.95-1.048.993.993 0 011.048-.95z" color="#000" font-family="sans-serif" font-weight="400" overflow="visible" style="line-height:normal;text-indent:0;text-align:start;text-decoration-line:none;text-decoration-style:solid;text-decoration-color:#000;text-transform:none;block-progression:tb;isolation:auto;mix-blend-mode:normal"/></svg>