<svg xmlns="http://www.w3.org/2000/svg" fill-rule="evenodd" stroke-linejoin="round" stroke-miterlimit="2" clip-rule="evenodd" viewBox="0 0 512 512"><path d="M247.99 152.692c-11.62-.991-22.94-5.831-31.39-13.893-10-9.544-15.86-23.194-15.9-37.119V37.938h102.58v63.742c-.07 22.097-15.79 43.239-37.25 49.337a49.19 49.19 0 01-10.04 1.742v21.04h88.18l7.29-29.459c-11.45-4.42-20.8-14.595-23.18-27.231-.96-5.042-.81-10.274.38-15.264l.05-.214 10.79-43.56c23.53 5.828 47.06 11.657 70.58 17.485-3.61 14.592-7.19 29.194-10.85 43.776-4 15.465-18.99 27.241-34.88 27.391-1.73.017-3.45-.102-5.15-.348l-6.79 27.424h44.56c1.18 1.959 2.36 3.919 3.53 5.879l-97.49 183.155 36.76 105.377-3.78 5.31h-168l-3.78-5.31 36.76-105.377-97.49-183.155 3.53-5.879h52.83l-6.82-27.527c-7.66.986-15.62-.35-22.38-4.091-8.66-4.796-15.16-13.298-17.63-22.849l-.06-.215-10.79-43.561 70.58-17.485c3.6 14.52 7.2 29.04 10.79 43.56 3.46 14.093-2.34 29.936-14.24 38.385a35 35 0 01-8.49 4.396l7.28 29.387h79.91v-21.107zm47.83 213.806h-87.66l-34.54 99.022h156.74l-34.54-99.022zM236.28 382.1l-13.2 42.799-7.64-2.357 13.19-42.799 7.65 2.357zM113.67 181.799l94.05 176.699h88.54l94.05-176.699H113.67zm115.74 155.222l-7.11 3.664-28.25-54.84 7.11-3.664c9.42 18.28 18.83 36.56 28.25 54.84zm-31.54-61.231l-7.11 3.664-5.05-9.797 7.11-3.664c1.68 3.266 3.37 6.532 5.05 9.797zM208.7 51.641c-.01 16.77-.05 33.541 0 50.312.18 18.476 13.34 36.108 31.18 41.295 14.5 4.216 31.06.166 41.98-10.238 5.93-5.655 10.13-13.064 12.12-21.019l-85.28-60.35zM398.91 87.39l-60.47 34.353c3.67 8.013 10.82 14.515 19.77 16.385 14.08 2.94 29.64-6.294 33.32-20.946l7.38-29.792zm-285.6-.086c2.47 10.083 4.89 20.177 7.5 30.227l.18.677c4.03 13.866 19.73 23.145 33.9 19.727 7.95-1.917 14.63-7.582 18.39-14.839l-59.97-35.792zm55.11-13.399l-17.39 26.598 24.96 14.896c.77-3.831.76-7.859-.22-11.854l-7.35-29.64zm175.52-.495l-7.46 30.135c-.84 3.403-.94 6.915-.41 10.343l25.04-14.225-17.17-26.253zm-48.66-23.709l-37.6 26.801 37.57 26.589c.02-.474.03-.949.03-1.424V49.701zM116.92 80.143l27.24 16.256 17.95-27.451-45.19 11.195zm251.16 15.56l27.35-15.536-44.76-11.087 17.41 26.623zM214.49 45.938l36.27 25.67 36.02-25.67h-72.29z"/></svg>