<svg xmlns="http://www.w3.org/2000/svg" data-name="Layer 1" viewBox="0 0 32 32"><path d="M21.5 15.5h-4.092a1.498 1.498 0 00-.908-.908V8.5a.5.5 0 00-1 0v6.092a1.496 1.496 0 101.908 1.908H21.5a.5.5 0 000-1zm-5.5 1a.5.5 0 11.5-.5.5.5 0 01-.5.5zm9.214-9.66c-.009-.01-.012-.023-.022-.032s-.022-.013-.032-.022a12.973 12.973 0 00-18.32 0c-.01.009-.023.012-.032.022s-.013.022-.022.032a12.973 12.973 0 000 18.32c.009.01.012.023.022.032s.022.013.032.022a12.973 12.973 0 0018.32 0c.01-.009.023-.012.032-.022s.013-.022.022-.032a12.973 12.973 0 000-18.32zm-.396 17.27l-1.04-1.039a.5.5 0 00-.707.707l1.04 1.04a11.936 11.936 0 01-7.611 3.157V26.5a.5.5 0 00-1 0v1.475a11.936 11.936 0 01-7.61-3.157l1.039-1.04a.5.5 0 00-.707-.707l-1.04 1.04A11.936 11.936 0 014.025 16.5H5.5a.5.5 0 000-1H4.025a11.936 11.936 0 013.157-7.61l1.04 1.039a.5.5 0 00.707-.707l-1.04-1.04A11.936 11.936 0 0115.5 4.025V5.5a.5.5 0 001 0V4.025a11.936 11.936 0 017.61 3.157l-1.039 1.04a.5.5 0 10.707.707l1.04-1.04a11.936 11.936 0 013.157 7.611H26.5a.5.5 0 000 1h1.475a11.936 11.936 0 01-3.157 7.61zM16 0a16 16 0 1016 16A16.018 16.018 0 0016 0zm0 31a15 15 0 1115-15 15.017 15.017 0 01-15 15z"/></svg>