<svg xmlns="http://www.w3.org/2000/svg" width="26" height="26"><path style="line-height:normal;text-indent:0;text-align:start;text-decoration-line:none;text-transform:none;block-progression:tb" d="M13 0C5.826 0 0 5.826 0 13s5.826 13 13 13 13-5.826 13-13S20.174 0 13 0zm0 1c6.633 0 12 5.367 12 12s-5.367 12-12 12S1 19.633 1 13 6.367 1 13 1zm2 3.982L14.982 5H7v15h10.996v-3.998h-1V19H8V6h6.018l-.006 3h3.984V8h-.01L15 4.982zm4.178 5.053l-.53.53.791.779.524-.524-.785-.785zm-10.182.967v1h6v-1h-6zm8.951.277l-3.629 3.612.786.787 3.626-3.627-.783-.772zm-8.95 1.723v1h4v-1h-4zm0 2v1h3v-1h-3zm4.757.74l-.248.746.746-.25-.498-.496zm-4.758 1.26v1h2.006v-1H8.996z" color="#000" font-family="sans-serif" font-weight="400" overflow="visible"/></svg>